<?xml version="1.0" encoding="utf-8"?><svg width="52" height="49" viewBox="0 0 52 49" xmlns="http://www.w3.org/2000/svg" xmlns:xlink="http://www.w3.org/1999/xlink"><svg width="22" height="21" viewBox="-2 -2 22 21" id="ic_heart_zzim" y="28" xmlns="http://www.w3.org/2000/svg"><g fill="#333"><path d="M12.6 1C15.068 1 17 2.974 17 5.496c0 .17-.008.338-.025.505h-.618c.018-.168.028-.336.028-.505 0-2.178-1.658-3.871-3.785-3.871-1.187 0-2.36.562-3.131 1.484L9 3.67l-.469-.56C7.76 2.187 6.587 1.625 5.4 1.625c-2.127 0-3.785 1.693-3.785 3.87 0 .804.21 1.586.64 2.406.855 1.635 2.091 2.937 6 6.562l.745.69.745-.69c.454-.42.871-.81 1.256-1.172v.852l-.841.782L9 16l-1.16-1.075C3.72 11.104 1 8.582 1 5.495 1 2.976 2.932 1 5.4 1c1.18 0 2.319.475 3.17 1.254l-.04.046h.087c.135.127.263.262.382.404a4.69 4.69 0 01.382-.404h.087a5.273 5.273 0 00-.038-.046C10.28 1.475 11.42 1 12.6 1z" stroke="#333" stroke-width=".4"/><path d="M13.3 7h1.4v6h-1.4z"/><path d="M17 9.3v1.4h-6V9.3z"/></g></svg><svg width="24" height="24" fill="none" viewBox="-2 -2 24 24" id="ic_history" x="28" xmlns="http://www.w3.org/2000/svg"><path fill-rule="evenodd" clip-rule="evenodd" d="M19.333 9.25H2.56l7.97-7.97A.749.749 0 109.47.22L.22 9.47a.749.749 0 000 1.06l9.25 9.25a.746.746 0 001.06 0 .749.749 0 000-1.06l-7.97-7.97h16.773a.667.667 0 00.667-.667v-.166a.667.667 0 00-.667-.667z" fill="#000"/></svg><svg width="28" height="28" viewBox="-2 -2 28 28" id="ic_home" xmlns="http://www.w3.org/2000/svg"><path d="M9.033 2.413a4.75 4.75 0 015.934 0l6.75 5.4a2.75 2.75 0 011.033 2.148V20A2.75 2.75 0 0120 22.75H4A2.75 2.75 0 011.25 20V9.961c0-.835.38-1.625 1.032-2.147zm4.997 1.172a3.25 3.25 0 00-4.06 0l-6.75 5.4a1.25 1.25 0 00-.47.976V20c0 .69.56 1.25 1.25 1.25h16c.69 0 1.25-.56 1.25-1.25V9.961c0-.38-.173-.739-.47-.976zM15 16.25a.75.75 0 01.102 1.493L15 17.75H9a.75.75 0 01-.102-1.493L9 16.25h6z"/></svg></svg>