<svg width="24" height="24" xmlns="http://www.w3.org/2000/svg">
	<g fill-rule="nonzero" fill="none">
		<path d="M9.033 2.413a4.75 4.75 0 0 1 5.934 0l6.75 5.4a2.75 2.75 0 0 1 1.033 2.148V20A2.75 2.75 0 0 1 20 22.75H4A2.75 2.75 0 0 1 1.25 20V9.961c0-.835.38-1.625 1.032-2.147Zm4.997 1.172a3.25 3.25 0 0 0-4.06 0l-6.75 5.4a1.25 1.25 0 0 0-.47.976V20c0 .69.56 1.25 1.25 1.25h16c.69 0 1.25-.56 1.25-1.25V9.961c0-.38-.173-.739-.47-.976ZM15 16.25a.75.75 0 0 1 .102 1.493L15 17.75H9a.75.75 0 0 1-.102-1.493L9 16.25h6Z" fill="#000"/>
	</g>
</svg>