<svg width="18" height="17" xmlns="http://www.w3.org/2000/svg">
	<g fill="#333" fill-rule="nonzero">
		<path d="M12.6 1C15.068 1 17 2.974 17 5.496c0 .17-.008.338-.025.505h-.618c.018-.168.028-.336.028-.505 0-2.178-1.658-3.871-3.785-3.871-1.187 0-2.36.562-3.131 1.484L9 3.67l-.469-.56C7.76 2.187 6.587 1.625 5.4 1.625c-2.127 0-3.785 1.693-3.785 3.87 0 .804.21 1.586.64 2.406.855 1.635 2.091 2.937 6 6.562l.745.69.745-.69c.454-.42.871-.81 1.256-1.172v.852l-.841.782L9 16l-1.16-1.075C3.72 11.104 1 8.582 1 5.495 1 2.976 2.932 1 5.4 1c1.18 0 2.319.475 3.17 1.254L8.53 2.3h.087c.135.127.263.262.382.404a4.69 4.69 0 01.382-.404h.087a5.273 5.273 0 00-.038-.046C10.28 1.475 11.42 1 12.6 1z" stroke="#333" stroke-width=".4"/>
		<path d="M13.3 7h1.4v6h-1.4z"/>
		<path d="M17 9.3v1.4h-6V9.3z"/>
	</g>
</svg>